<?xml version="1.0" standalone="no"?>
<!DOCTYPE svg PUBLIC "-//W3C//DTD SVG 20010904//EN"
 "http://www.w3.org/TR/2001/REC-SVG-20010904/DTD/svg10.dtd">
<svg version="1.0" xmlns="http://www.w3.org/2000/svg"
 width="605.000000pt" height="605.000000pt" viewBox="0 0 605.000000 605.000000"
 preserveAspectRatio="xMidYMid meet">
<metadata>
Created by potrace 1.14, written by Peter Selinger 2001-2017
</metadata>
<g transform="translate(0.000000,605.000000) scale(0.100000,-0.100000)"
fill="#000000" stroke="none">
<path d="M341 5159 c-88 -24 -131 -49 -192 -110 -72 -72 -117 -162 -130 -259
-7 -48 -9 -662 -6 -1794 4 -1940 -4 -1767 84 -1898 55 -84 109 -132 193 -171
64 -31 67 -31 261 -35 249 -5 233 -15 290 188 22 80 55 195 74 255 19 61 49
157 66 215 17 58 42 141 55 185 14 44 29 97 35 118 25 100 103 202 180 236 21
10 36 21 32 25 -4 3 -123 6 -265 5 -256 -1 -258 -1 -311 25 -84 40 -151 106
-194 194 l-38 76 0 900 0 901 24 58 c44 111 145 209 255 247 54 19 107 20
2273 20 1252 0 2231 -4 2248 -9 100 -28 209 -121 255 -215 62 -125 60 -92 59
-1006 l-1 -836 -23 -73 c-44 -138 -138 -238 -259 -272 -16 -5 -147 -9 -290
-10 -203 -1 -257 -3 -242 -12 58 -36 120 -94 151 -140 36 -55 147 -399 326
-1015 17 -58 36 -63 230 -61 141 1 186 5 236 20 126 39 245 162 292 300 l21
63 0 1760 c0 1150 -4 1776 -11 1805 -33 146 -153 271 -305 318 -56 17 -173 18
-2688 18 -2351 0 -2634 -2 -2685 -16z m207 -241 c91 -73 113 -175 56 -259 -70
-103 -206 -117 -293 -29 -108 109 -50 286 104 320 33 7 106 -10 133 -32z
m5170 -5 c118 -95 104 -258 -28 -322 -84 -40 -168 -22 -232 52 -74 85 -45 231
57 285 72 37 145 32 203 -15z m-5204 -3405 c83 -25 148 -128 131 -209 -21 -99
-92 -159 -189 -159 -82 0 -140 37 -179 116 -34 66 4 185 71 227 64 41 96 46
166 25z m5166 -10 c26 -14 57 -41 75 -66 26 -37 30 -53 30 -106 0 -50 -5 -70
-24 -98 -36 -53 -84 -81 -146 -86 -71 -6 -97 2 -141 41 -49 42 -73 98 -68 154
14 144 150 223 274 161z"/>
<path d="M1765 4009 c-226 -34 -395 -141 -520 -329 -90 -137 -122 -256 -112
-424 12 -194 82 -344 226 -485 98 -95 205 -156 341 -192 59 -16 220 -17 295
-1 47 10 280 12 1060 10 550 -2 1011 -7 1025 -11 53 -15 214 -8 293 12 132 35
228 92 338 201 79 78 103 110 137 180 47 96 70 175 79 270 5 58 1 94 -23 230
-18 104 -107 254 -207 347 -107 99 -227 157 -391 189 -76 15 -100 16 -199 5
-85 -10 -362 -11 -1147 -8 -569 3 -1057 7 -1085 10 -27 3 -77 1 -110 -4z
m1839 -298 c3 -5 -9 -32 -28 -61 -19 -28 -49 -95 -67 -148 -29 -85 -33 -110
-33 -207 -1 -151 22 -251 85 -362 16 -28 25 -54 20 -57 -9 -6 -1111 -9 -1117
-3 -2 2 14 39 35 83 68 138 90 228 86 347 -5 122 -42 237 -112 350 -14 22 -22
45 -19 52 4 12 104 14 575 15 339 0 572 -3 575 -9z m-1624 -26 c71 -25 124
-61 175 -117 173 -191 137 -491 -73 -621 -74 -46 -128 -59 -229 -58 -81 1
-104 6 -158 30 -104 47 -192 144 -230 251 -17 48 -22 164 -10 220 22 100 110
212 208 266 93 50 223 62 317 29z m2403 -24 c77 -37 152 -114 194 -199 25 -52
28 -67 28 -167 0 -105 -2 -114 -33 -175 -74 -149 -196 -227 -359 -231 -126 -3
-210 28 -298 112 -131 124 -163 310 -82 477 54 111 178 204 295 221 81 11 184
-4 255 -38z"/>
<path d="M1417 1885 c-22 -7 -49 -23 -62 -35 -30 -28 -66 -117 -101 -245 -14
-55 -62 -224 -105 -376 -44 -151 -79 -283 -79 -292 0 -9 10 -23 22 -31 20 -14
221 -16 1940 -16 1729 0 1918 2 1932 16 25 24 20 57 -35 229 -27 88 -58 189
-69 225 -125 442 -149 498 -233 529 -20 8 -510 11 -1600 11 -1305 -1 -1579 -3
-1610 -15z m1682 -300 c18 -9 46 -37 62 -63 26 -40 30 -54 26 -99 -12 -167
-222 -211 -305 -64 -27 47 -28 93 -3 146 42 91 134 125 220 80z m-821 -172
c64 -31 105 -128 83 -196 -12 -37 -62 -88 -101 -103 -70 -29 -171 11 -203 79
-25 51 -22 128 5 163 33 43 59 64 87 70 14 3 31 7 36 9 15 6 55 -4 93 -22z
m1649 3 c61 -31 92 -94 85 -169 -5 -61 -56 -118 -119 -137 -112 -34 -235 77
-208 187 26 111 146 169 242 119z m-2255 -12 c69 -36 108 -146 75 -211 -66
-127 -238 -127 -303 -1 -22 42 -20 97 5 146 41 80 139 109 223 66z m2863 4
c85 -44 119 -148 74 -228 -60 -107 -221 -107 -283 -1 -22 39 -23 118 -2 159
39 75 138 107 211 70z"/>
</g>
</svg>
